<svg width="28" height="28" viewBox="0 0 28 28" fill="none" xmlns="http://www.w3.org/2000/svg">
<path d="M6.1414 14.0025C6.1414 8.54344 10.554 4.1308 16.0131 4.1308C18.0417 4.1308 19.9346 4.73545 21.5091 5.79418C22.9208 4.40722 23.3872 2.70682 21.4721 1.16684C19.7964 0.448673 17.943 0.0562744 16.0131 0.0562744C8.31069 0.0562744 2.06934 6.29764 2.06934 14C2.06934 21.7024 8.31069 27.9437 16.0131 27.9437C19.3916 27.9437 22.4938 26.7345 24.9148 24.728C27.4247 22.6476 24.7766 19.4961 22.4321 21.5C20.7046 22.9758 18.4612 23.8692 16.0155 23.8692C10.554 23.8741 6.1414 19.4492 6.1414 14.0025Z" fill="#00E2FF"/>
<path d="M24.5709 9.1012C25.5284 7.81541 26.0072 6.45312 25.8197 5.19202C25.4914 3.08688 23.2481 1.92696 21.4687 1.16931C23.1197 2.49212 22.4509 4.44671 21.3305 6.04838L15.9973 13.6249L15.9727 13.7261C17.0314 14.8218 18.7343 17.0553 20.1829 15.113L24.5709 9.1012Z" fill="url(#paint0_linear_121_16232)"/>
<path d="M15.7721 13.398C15.318 12.9562 14.2223 11.8728 12.5441 10.007C10.703 7.9636 7.40094 10.5376 9.53076 12.9833L16.0485 20.434L20.1847 15.1132C18.7854 16.9912 16.7815 14.3679 15.7721 13.398Z" fill="url(#paint1_linear_121_16232)"/>
<defs>
<linearGradient id="paint0_linear_121_16232" x1="15.9733" y1="8.52509" x2="25.8602" y2="8.52509" gradientUnits="userSpaceOnUse">
<stop stop-color="#00AAFF"/>
<stop offset="0.9999" stop-color="#00ADFF"/>
</linearGradient>
<linearGradient id="paint1_linear_121_16232" x1="8.8408" y1="14.8483" x2="20.1859" y2="14.8483" gradientUnits="userSpaceOnUse">
<stop stop-color="#00C0FF"/>
<stop offset="0.1453" stop-color="#039BFF"/>
<stop offset="0.3074" stop-color="#0579FF"/>
<stop offset="0.4731" stop-color="#075EFF"/>
<stop offset="0.6416" stop-color="#084BFF"/>
<stop offset="0.8145" stop-color="#0940FF"/>
<stop offset="0.9987" stop-color="#093CFF"/>
</linearGradient>
</defs>
</svg>
